<?xml version="1.0" encoding="UTF-8" standalone="no"?>
<svg
   xmlns:dc="http://purl.org/dc/elements/1.1/"
   xmlns:cc="http://creativecommons.org/ns#"
   xmlns:rdf="http://www.w3.org/1999/02/22-rdf-syntax-ns#"
   xmlns:svg="http://www.w3.org/2000/svg"
   xmlns="http://www.w3.org/2000/svg"
   xmlns:sodipodi="http://sodipodi.sourceforge.net/DTD/sodipodi-0.dtd"
   xmlns:inkscape="http://www.inkscape.org/namespaces/inkscape"
   viewBox="0 0 264.33331 79.369331"
   height="79.369331"
   width="264.33331"
   xml:space="preserve"
   id="svg2"
   version="1.1"
   sodipodi:docname="Visokio.svg"
   inkscape:version="0.92.4 (5da689c313, 2019-01-14)"><sodipodi:namedview
     pagecolor="#ffffff"
     bordercolor="#666666"
     borderopacity="1"
     objecttolerance="10"
     gridtolerance="10"
     guidetolerance="10"
     inkscape:pageopacity="0"
     inkscape:pageshadow="2"
     inkscape:window-width="1920"
     inkscape:window-height="1017"
     id="namedview3765"
     showgrid="false"
     inkscape:zoom="3.0219252"
     inkscape:cx="215.85241"
     inkscape:cy="-25.997346"
     inkscape:window-x="-8"
     inkscape:window-y="-8"
     inkscape:window-maximized="1"
     inkscape:current-layer="svg2" /><metadata
     id="metadata8"><rdf:RDF><cc:Work
         rdf:about=""><dc:format>image/svg+xml</dc:format><dc:type
           rdf:resource="http://purl.org/dc/dcmitype/StillImage" /><dc:title></dc:title></cc:Work></rdf:RDF></metadata><defs
     id="defs6"><clipPath
       id="clipPath18"
       clipPathUnits="userSpaceOnUse"><path
         id="path16"
         d="M 0,595.276 H 841.89 V 0 H 0 Z"
         inkscape:connector-curvature="0" /></clipPath><clipPath
       id="clipPath30"
       clipPathUnits="userSpaceOnUse"><path
         id="path28"
         d="M 0,595.276 H 841.89 V 0 H 0 Z"
         inkscape:connector-curvature="0" /></clipPath><clipPath
       id="clipPath40"
       clipPathUnits="userSpaceOnUse"><path
         id="path38"
         d="M 0,595.276 H 841.89 V 0 H 0 Z"
         inkscape:connector-curvature="0" /></clipPath></defs><g
     transform="matrix(1.1525139,0,0,-1.1525139,-352.28795,366.60272)"
     id="g10"><g
       id="g12"><g
         clip-path="url(#clipPath18)"
         id="g14"><path
           id="path20"
           style="fill:#b5c1de;fill-opacity:1;fill-rule:nonzero;stroke:none"
           d="m 478.377,283.735 c -2.71,4.684 -5.934,8.897 -9.745,12.716 -9.275,8.898 -20.631,14.567 -34.111,16.969 5.778,-2.6 10.493,-6.615 14.069,-12.008 2.789,-4.24 4.458,-8.836 5.028,-13.814 h -0.013 c 0.082,-0.661 0.145,-1.326 0.186,-1.994 0,-0.009 0,-0.017 0.002,-0.023 0.039,-0.643 0.059,-1.289 0.061,-1.939 -0.002,-0.112 -0.005,-0.222 -0.007,-0.329 -0.005,-0.437 -0.026,-0.865 -0.046,-1.293 -0.014,-0.282 -0.029,-0.566 -0.05,-0.845 h 0.021 c -0.383,-5.549 -2.121,-10.62 -5.182,-15.276 -3.576,-5.392 -8.291,-9.407 -14.069,-12.006 13.48,2.402 24.836,8.071 34.111,16.968 3.811,3.817 7.035,8.031 9.745,12.717 -0.015,0.026 -0.033,0.052 -0.048,0.078 0.015,0.027 0.033,0.052 0.048,0.079"
           inkscape:connector-curvature="0" /><path
           id="path22"
           style="fill:#b5c1de;fill-opacity:1;fill-rule:nonzero;stroke:none"
           d="m 392.292,265.899 c -3.061,4.656 -4.798,9.727 -5.184,15.276 h 0.023 c -0.022,0.279 -0.035,0.563 -0.051,0.845 -0.019,0.428 -0.04,0.856 -0.044,1.293 -0.002,0.107 -0.008,0.217 -0.008,0.329 10e-4,0.65 0.021,1.296 0.061,1.939 10e-4,0.006 10e-4,0.014 10e-4,0.023 0.042,0.668 0.105,1.333 0.186,1.994 h -0.012 c 0.569,4.978 2.239,9.574 5.028,13.814 3.577,5.393 8.291,9.408 14.069,12.008 -13.48,-2.402 -24.836,-8.071 -34.111,-16.969 -3.811,-3.819 -7.034,-8.032 -9.745,-12.716 0.015,-0.027 0.032,-0.052 0.046,-0.079 -0.014,-0.026 -0.031,-0.052 -0.046,-0.078 2.711,-4.686 5.934,-8.9 9.745,-12.717 9.275,-8.897 20.631,-14.566 34.111,-16.968 -5.778,2.599 -10.492,6.614 -14.069,12.006"
           inkscape:connector-curvature="0" /></g></g><g
       id="g24"><g
         clip-path="url(#clipPath30)"
         id="g26"><path
           id="path32"
           style="fill:#f68c11;fill-opacity:1;fill-rule:nonzero;stroke:none"
           d="m 437.64,279.885 c 0,-2.031 -0.523,-3.657 -1.451,-4.876 -0.987,-1.278 -2.09,-2.207 -3.367,-2.787 -1.22,-0.522 -2.264,-0.814 -3.136,-0.814 h -18.491 c -0.872,0 -1.914,0.292 -3.135,0.814 -1.277,0.58 -2.381,1.509 -3.367,2.787 -0.929,1.219 -1.451,2.845 -1.451,4.876 v 8.132 c 0,2.033 0.522,3.659 1.451,4.876 0.986,1.278 2.09,2.207 3.367,2.788 1.221,0.522 2.263,0.812 3.135,0.812 h 18.491 c 0.872,0 1.916,-0.29 3.136,-0.812 1.277,-0.581 2.38,-1.51 3.367,-2.788 0.928,-1.217 1.451,-2.843 1.451,-4.876 z m 9.262,5.674 c -0.003,0.052 -0.006,0.104 -0.009,0.156 -1.07,13.335 -12.495,23.833 -26.438,23.833 -0.005,0 -0.009,-10e-4 -0.014,-10e-4 -0.005,0 -0.01,10e-4 -0.014,10e-4 -13.944,0 -25.367,-10.498 -26.437,-23.833 -0.004,-0.052 -0.009,-0.104 -0.012,-0.156 -0.046,-0.624 -0.079,-1.254 -0.079,-1.889 0,-0.007 10e-4,-0.013 10e-4,-0.018 0,-0.003 -10e-4,-0.006 -10e-4,-0.008 0,-0.283 0.014,-0.559 0.022,-0.839 0.005,-0.132 0.004,-0.264 0.012,-0.396 0.66,-13.719 12.267,-24.645 26.494,-24.645 0.004,0 0.009,0.003 0.014,0.003 0.005,0 0.009,-0.003 0.014,-0.003 14.225,0 25.831,10.924 26.495,24.641 0.006,0.173 0.006,0.35 0.014,0.523 0.007,0.239 0.017,0.475 0.017,0.716 v 0.026 c 0,0.635 -0.031,1.265 -0.079,1.889 m -21.047,4.897 h -10.829 c -1.568,0 -2.728,-0.406 -3.424,-1.161 -0.756,-0.755 -1.104,-1.684 -1.104,-2.728 v -5.23 c 0,-1.045 0.348,-1.975 1.104,-2.728 0.696,-0.755 1.856,-1.163 3.424,-1.163 h 10.829 c 1.568,0 2.729,0.408 3.425,1.163 0.756,0.753 1.105,1.683 1.105,2.728 v 5.23 c 0,1.044 -0.349,1.973 -1.105,2.728 -0.696,0.755 -1.857,1.161 -3.425,1.161"
           inkscape:connector-curvature="0" /></g></g><g
       id="g34"><g
         clip-path="url(#clipPath40)"
         id="g36"><path
           id="path42"
           style="fill:#2a3c93;fill-opacity:1;fill-rule:nonzero;stroke:none"
           d="m 390.65,277.575 h -19.924 v -6.167 h 22.566 c 3.271,0 5.588,1.784 5.588,5.211 v 6.01 c 0,2.977 -1.922,4.636 -5.297,4.636 h -15.037 c -0.874,0 -1.7,0.249 -1.7,1.618 0,1.369 0.654,1.658 1.701,1.658 h 19.115 v 5.952 h -21.954 c -3.25,0 -4.905,-1.676 -4.905,-4.676 v -6.584 c 0,-2.67 1.746,-3.966 4.405,-3.966 h 15.442 c 1.288,0 1.779,-0.619 1.779,-1.875 0,-1.257 -0.722,-1.817 -1.779,-1.817"
           inkscape:connector-curvature="0" /><path
           id="path44"
           style="fill:#2a3c93;fill-opacity:1;fill-rule:nonzero;stroke:none"
           d="m 481.415,296.493 h -7.198 v -25.085 h 7.198 z"
           inkscape:connector-curvature="0" /><path
           id="path46"
           style="fill:#2a3c93;fill-opacity:1;fill-rule:nonzero;stroke:none"
           d="m 470.965,271.408 -15.789,12.834 14.339,12.251 h -9.578 l -11.197,-9.266 v 9.266 h -7.138 v -25.085 h 7.138 v 9.672 l 11.661,-9.672 z"
           inkscape:connector-curvature="0" /><path
           id="path48"
           style="fill:#2a3c93;fill-opacity:1;fill-rule:nonzero;stroke:none"
           d="m 512.215,281.338 c 0,-1.045 -0.348,-1.975 -1.106,-2.729 -0.694,-0.755 -1.855,-1.162 -3.423,-1.162 h -10.83 c -1.568,0 -2.727,0.407 -3.422,1.162 -0.758,0.754 -1.107,1.684 -1.107,2.729 v 5.23 c 0,1.043 0.349,1.973 1.107,2.727 0.695,0.756 1.854,1.162 3.422,1.162 h 10.83 c 1.568,0 2.729,-0.406 3.423,-1.162 0.758,-0.754 1.106,-1.684 1.106,-2.727 z m 5.804,11.555 c -0.987,1.279 -2.089,2.207 -3.368,2.789 -1.219,0.521 -2.262,0.811 -3.134,0.811 h -18.492 c -0.872,0 -1.915,-0.29 -3.134,-0.811 -1.279,-0.582 -2.38,-1.51 -3.367,-2.789 -0.93,-1.217 -1.452,-2.842 -1.452,-4.875 v -8.133 c 0,-2.031 0.522,-3.656 1.452,-4.875 0.987,-1.278 2.088,-2.207 3.367,-2.787 1.219,-0.522 2.262,-0.815 3.134,-0.815 h 18.492 c 0.872,0 1.915,0.293 3.134,0.815 1.279,0.58 2.381,1.509 3.368,2.787 0.929,1.219 1.452,2.844 1.452,4.875 v 8.133 c 0,2.033 -0.523,3.658 -1.452,4.875"
           inkscape:connector-curvature="0" /><path
           id="path50"
           style="fill:#2a3c93;fill-opacity:1;fill-rule:nonzero;stroke:none"
           d="m 356.136,296.493 -10.935,-20.93 c -0.365,-0.693 -0.798,-1.336 -1.298,-1.931 -0.501,-0.596 -1.195,-1.115 -2.089,-1.558 -0.893,-0.442 -1.96,-0.665 -3.21,-0.665 -1.191,0 -2.25,0.234 -3.176,0.7 -0.923,0.464 -1.666,1.011 -2.224,1.642 -0.56,0.631 -0.942,1.189 -1.145,1.679 l -10.838,21.063 h 7.531 l 8.661,-16.462 c 0.247,-0.475 0.432,-0.797 0.555,-0.952 0.124,-0.16 0.325,-0.239 0.605,-0.239 0.301,0 0.519,0.085 0.655,0.255 0.133,0.172 0.318,0.481 0.555,0.936 l 8.724,16.462 z"
           inkscape:connector-curvature="0" /><path
           id="path52"
           style="fill:#2a3c93;fill-opacity:1;fill-rule:nonzero;stroke:none"
           d="m 366.69,271.408 h -7.149 v 25.085 h 7.149 z"
           inkscape:connector-curvature="0" /></g></g></g></svg>